Coordinates
nRows=9
nColumns=38

# SIMM Motion File Header:
name Coordinates
datacolumns 38
datarows 9
otherdata 1
range 0.76700000000000002000 0.77500000000000002000

Units are S.I. units (second, meters, Newtons, ...)
Angles are in degrees.

endheader
time	pelvis_tilt	pelvis_list	pelvis_rotation	pelvis_tx	pelvis_ty	pelvis_tz	hip_flexion_r	hip_adduction_r	hip_rotation_r	knee_angle_r	ankle_angle_r	subtalar_angle_r	mtp_angle_r	hip_flexion_l	hip_adduction_l	hip_rotation_l	knee_angle_l	ankle_angle_l	subtalar_angle_l	mtp_angle_l	lumbar_extension	lumbar_bending	lumbar_rotation	arm_flex_r	arm_add_r	arm_rot_r	elbow_flex_r	pro_sup_r	wrist_flex_r	wrist_dev_r	arm_flex_l	arm_add_l	arm_rot_l	elbow_flex_l	pro_sup_l	wrist_flex_l	wrist_dev_l
      0.76700000000000002000	    -10.60056714480305700000	     -3.09650485546265090000	      6.91961965031922150000	      0.93001924267757963000	      0.97657327866646104000	     -0.31804224895154265000	     40.44378046155105000000	      2.30937263194494770000	    -14.03389344114011700000	    -14.89143419488946000000	      8.34749654550956240000	      0.00000000000000000000	      0.00000000000000000000	     -7.26880538719496090000	     -2.11400125853099890000	      7.26707571399833170000	    -54.53098063444846800000	    -20.52634119435461100000	      0.00000000000000000000	      0.00000000000000000000	      1.07302874607797130000	      1.36622859959800550000	    -16.69252687607498200000	    -55.85899895014772900000	    -13.67796454145822900000	     -9.90147939867380340000	     98.75665149512816800000	     87.19734426643258000000	      0.00000000000000000000	      0.00000000000000000000	      0.17374013630727458000	    -27.46936832736742300000	      5.10397990162105850000	    131.55392479753809000000	    117.71340926637603000000	      0.00000000000000000000	      0.00000000000000000000
      0.76800000000000002000	    -10.54289693301075000000	     -3.06474424039081270000	      6.92360891525850700000	      0.93017136161571601000	      0.97617835524903385000	     -0.31809475854437891000	     40.20430656257353500000	      2.31717497646630480000	    -14.08846160829212800000	    -14.69819553493369600000	      8.40933860714529400000	     -0.00000000000000000074	     -0.00000000000000000020	     -7.15219772671460690000	     -2.07320278834226370000	      7.25159759925695280000	    -55.13404688674113900000	    -20.52151974033685600000	     -0.00000000000000000060	      0.00000000000000000040	      1.02398953342743270000	      1.35149480142851570000	    -16.63595235511088100000	    -55.78660218456445100000	    -13.73227804128378600000	     -9.86232939118229620000	     98.79151441368603100000	     87.18946216676499700000	      0.00000000000000000022	     -0.00000000000000000024	      0.03688882746932116400	    -27.46258895739833200000	      5.11069245205536230000	    131.43848752100419000000	    117.80000016406383000000	      0.00000000000000000019	     -0.00000000000000000080
      0.76900000000000002000	    -10.48395720873091900000	     -3.03439226974750080000	      6.92644346066840910000	      0.93032632907935320000	      0.97577440779953450000	     -0.31814728403289771000	     39.96634593694781800000	      2.32606839439471310000	    -14.14211423946925800000	    -14.52187232872000600000	      8.47284550804352500000	     -0.00000000000000000020	     -0.00000000000000000038	     -7.03564742677470090000	     -2.03432444618089510000	      7.23266435171761300000	    -55.73803355098273500000	    -20.51918408836823500000	     -0.00000000000000000104	      0.00000000000000000092	      0.97478057873606161000	      1.33891997284702780000	    -16.57752716421678900000	    -55.71381155403889800000	    -13.78828235274046500000	     -9.82298205753511590000	     98.82799599060106700000	     87.18029860531071100000	      0.00000000000000000024	      0.00000000000000000051	     -0.10169386955763977000	    -27.45531857545541900000	      5.11717285611488930000	    131.31969295695771000000	    117.88211980324080000000	      0.00000000000000000145	     -0.00000000000000000204
      0.77000000000000002000	    -10.42386680442342100000	     -3.00557461365106440000	      6.92796806990333720000	      0.93048386929624283000	      0.97536142756826427000	     -0.31819964418988383000	     39.73012817776333300000	      2.33613765328829000000	    -14.19501252119703400000	    -14.36249484508414100000	      8.53117092639546650000	     -0.00000000000000000025	     -0.00000000000000000663	     -6.91901392172914860000	     -1.99749425129196450000	      7.21018036514988480000	    -56.34295280124177200000	    -20.51909092669090700000	     -0.00000000000000000223	      0.00000000000000000072	      0.92551269580887319000	      1.32864270158701810000	    -16.51710607752864800000	    -55.64059956238953900000	    -13.84600154871465700000	     -9.78348299057823570000	     98.86605789333377500000	     87.16993525142304100000	      0.00000000000000000038	      0.00000000000000000215	     -0.24195595929717989000	    -27.44750314898093200000	      5.12341998588555650000	    131.19757597137263000000	    117.95960815167800000000	      0.00000000000000000188	     -0.00000000000000000309
      0.77100000000000002000	    -10.36270767184171100000	     -2.97833401114292510000	      6.92819441410769610000	      0.93064386454431025000	      0.97493928753818526000	     -0.31825180153640570000	     39.49569981641139500000	      2.34739959969226810000	    -14.24732073450211400000	    -14.21977884555446000000	      8.58483909254250580000	      0.00000000000000000214	     -0.00000000000000001528	     -6.80219860346906020000	     -1.96278300127063820000	      7.18422698549398930000	    -56.94882385328174500000	    -20.52094030170119500000	     -0.00000000000000000422	      0.00000000000000000195	      0.87626646460894830000	      1.32069048872683340000	    -16.45470738845773400000	    -55.56697981604033000000	    -13.90542655031394900000	     -9.74387279789693750000	     98.90568458160520000000	     87.15849037403518200000	      0.00000000000000000024	      0.00000000000000000272	     -0.38386471090594504000	    -27.43915068198732500000	      5.12941617067245660000	    131.07224057046309000000	    118.03223091236400000000	      0.00000000000000000125	     -0.00000000000000000444
      0.77200000000000002000	    -10.30079575533690000000	     -2.95271963778959720000	      6.92711670883455180000	      0.93080605724145959000	      0.97450754427112884000	     -0.31830371011402553000	     39.26341394484897800000	      2.35983310355116820000	    -14.29920526292587200000	    -14.09353372644261700000	      8.63311319463187130000	      0.00000000000000000365	     -0.00000000000000002487	     -6.68481659761309640000	     -1.93023091114987210000	      7.15488673375982480000	    -57.55573697583730600000	    -20.52442229084004300000	     -0.00000000000000000552	      0.00000000000000000455	      0.82738146806180890000	      1.31506907920060990000	    -16.39034724951331500000	    -55.49298977910284200000	    -13.96655603538850700000	     -9.70419613015536160000	     98.94684112942975700000	     87.14608251426639600000	      0.00000000000000000006	      0.00000000000000000352	     -0.52743953268883870000	    -27.43024940998648000000	      5.13513440183059360000	    130.94379193044225000000	    118.09977782339614000000	      0.00000000000000000075	     -0.00000000000000000499
      0.77300000000000002000	    -10.23831153652507800000	     -2.92878285122505580000	      6.92476317822519680000	      0.93097022280127040000	      0.97406594713296690000	     -0.31835536227309225000	     39.03345911500169800000	      2.37342550907448930000	    -14.35087587034115200000	    -13.98351264424182700000	      8.67563338283288840000	      0.00000000000000000411	     -0.00000000000000003700	     -6.56663491578097340000	     -1.89990322461273250000	      7.12226591921224550000	    -58.16375385615030800000	    -20.52923808330908200000	     -0.00000000000000000710	      0.00000000000000000682	      0.77904041515676570000	      1.31180362433252240000	    -16.32406497502519500000	    -55.41863885131772300000	    -14.02938305724335800000	     -9.66449446919284410000	     98.98949453641311900000	     87.13282764021795400000	     -0.00000000000000000007	      0.00000000000000000472	     -0.67266487032449473000	    -27.42080065931213200000	      5.14055173397168730000	    130.81233593245832000000	    118.16203388087879000000	     -0.00000000000000000070	     -0.00000000000000000496
      0.77400000000000002000	    -10.17535732991801800000	     -2.90657515487621150000	      6.92116387598982200000	      0.93113614270133305000	      0.97361436330134732000	     -0.31840675137669217000	     38.80594004336101200000	      2.38817575956972660000	    -14.40255693232937300000	    -13.88945023917001200000	      8.71196088888246220000	      0.00000000000000000223	     -0.00000000000000004437	     -6.44751099213425240000	     -1.87187557645659200000	      7.08646861987994740000	    -58.77291546964284700000	    -20.53509876761727100000	     -0.00000000000000000892	      0.00000000000000000868	      0.73133233623421523000	      1.31093089945045250000	    -16.25589476409742300000	    -55.34391575950037600000	    -14.09389832966052000000	     -9.62480788058481100000	     99.03361108930867800000	     87.11883812929630700000	     -0.00000000000000000041	      0.00000000000000000625	     -0.81950305188476280000	    -27.41081216463222200000	      5.14564778469011670000	    130.67797811381323000000	    118.21878702460290000000	     -0.00000000000000000169	     -0.00000000000000000483
      0.77500000000000002000	    -10.11198471056519600000	     -2.88614555138061930000	      6.91635147165134970000	      0.93130359652640604000	      0.97315273519521517000	     -0.31845787248144308000	     38.58090949160042300000	      2.40408829244800560000	    -14.45448384715633600000	    -13.81106938294297000000	      8.74169677796142080000	      0.00000000000000000120	     -0.00000000000000005419	     -6.32736011644009100000	     -1.84622717862136130000	      7.04760015325163720000	    -59.38324946916534200000	    -20.54172454029143700000	     -0.00000000000000001170	      0.00000000000000001077	      0.68428404525294351000	      1.31249228492919890000	    -16.18586826614138400000	    -55.26879391336392900000	    -14.16009041647760300000	     -9.58517512559054020000	     99.07915564136840200000	     87.10422269170015900000	     -0.00000000000000000082	      0.00000000000000000716	     -0.96790189842205010000	    -27.40029722398588800000	      5.15040356653833790000	    130.54082489164776000000	    118.26983159691942000000	     -0.00000000000000000256	     -0.00000000000000000380
